<?xml version="1.0" encoding="utf-8"?>
<!-- Generator: Adobe Illustrator 19.2.1, SVG Export Plug-In . SVG Version: 6.00 Build 0)  -->
<svg version="1.1" id="Capa_1" xmlns="http://www.w3.org/2000/svg" xmlns:xlink="http://www.w3.org/1999/xlink" x="0px" y="0px"
	 viewBox="0 0 512 512" style="enable-background:new 0 0 512 512;" xml:space="preserve">
<style type="text/css">
	.st0{fill:#FFFFFF;}
</style>
<g>
	<g>
		<path class="st0" d="M434.1,0H77.9C35,0,0,34.9,0,77.9v133.6v222.6c0,43,35,77.9,77.9,77.9h356.2c43,0,77.9-34.9,77.9-77.9V211.5
			V77.9C512,34.9,477,0,434.1,0z M489.7,434.1c0,30.7-25,55.7-55.7,55.7H77.9c-30.7,0-55.7-25-55.7-55.7V222.6h92.9
			c-0.2,0.9-0.3,1.8-0.5,2.7c-0.8,3.7-1.5,7.4-2,11.2c-0.2,1.4-0.4,2.9-0.6,4.4c-0.5,5-0.9,10-0.9,15.1
			c0,79.8,64.9,144.7,144.7,144.7S400.7,335.8,400.7,256c0-5.1-0.4-10.1-0.9-15.1c-0.1-1.4-0.4-2.9-0.6-4.3c-0.5-3.8-1.2-7.6-2-11.3
			c-0.2-0.9-0.3-1.8-0.5-2.6h93V434.1z M133.6,256c0-14.1,2.4-27.8,7.1-40.8c17.2-48.8,63.5-81.6,115.4-81.6
			c6.5,0,12.9,0.5,19.1,1.5c40.7,6.5,75.8,33.2,92.7,71.2c1.3,2.9,2.5,5.9,3.5,8.9c0,0,0,0,0,0c0,0,0,0,0,0.1
			c4.7,12.9,7,26.7,7,40.7c0,67.5-54.9,122.4-122.4,122.4S133.6,323.5,133.6,256z M489.7,200.3H389.5c-0.2-0.6-0.5-1.1-0.7-1.6
			c-0.7-1.6-1.4-3.1-2.1-4.6c-0.8-1.8-1.7-3.6-2.6-5.3c-0.8-1.5-1.6-3-2.5-4.5c-1-1.7-1.9-3.4-3-5c-0.9-1.5-1.9-2.9-2.8-4.3
			c-1.1-1.6-2.2-3.1-3.3-4.7c-1-1.4-2.1-2.7-3.1-4.1c-1.2-1.5-2.4-2.9-3.6-4.4c-1.1-1.3-2.3-2.6-3.4-3.8c-1.3-1.4-2.6-2.7-3.9-4.1
			c-1.2-1.2-2.4-2.4-3.7-3.6c-1.4-1.3-2.8-2.5-4.2-3.8c-1.3-1.1-2.6-2.2-3.9-3.3c-1.5-1.2-3-2.3-4.5-3.4c-1.4-1-2.7-2-4.1-3
			c-1.6-1.1-3.1-2.1-4.8-3.1c-1.4-0.9-2.8-1.8-4.3-2.7c-1.6-1-3.3-1.9-5-2.7c-1.5-0.8-3-1.6-4.5-2.3c-1.7-0.8-3.5-1.6-5.3-2.4
			c-1.5-0.7-3-1.4-4.6-2c-1.8-0.7-3.7-1.4-5.6-2c-1.5-0.5-3.1-1.1-4.6-1.6c-2-0.6-3.9-1.1-5.9-1.7c-1.5-0.4-3-0.9-4.6-1.2
			c-2.1-0.5-4.3-0.9-6.4-1.3c-1.4-0.3-2.9-0.6-4.3-0.8c-2.4-0.4-4.9-0.6-7.3-0.9c-1.2-0.1-2.4-0.3-3.7-0.4
			c-3.7-0.3-7.4-0.4-11.2-0.4s-7.5,0.2-11.2,0.4c-1.2,0.1-2.5,0.3-3.7,0.4c-2.4,0.3-4.9,0.5-7.3,0.9c-1.5,0.2-2.9,0.6-4.4,0.8
			c-2.1,0.4-4.3,0.8-6.4,1.3c-1.6,0.4-3.1,0.8-4.6,1.2c-2,0.5-3.9,1-5.8,1.6c-1.6,0.5-3.1,1.1-4.7,1.6c-1.8,0.6-3.7,1.3-5.5,2
			c-1.6,0.6-3.1,1.3-4.7,2c-1.7,0.8-3.4,1.5-5.1,2.3c-1.6,0.8-3.1,1.6-4.7,2.4c-1.6,0.9-3.2,1.7-4.8,2.6c-1.5,0.9-3,1.9-4.5,2.8
			c-1.5,1-3,1.9-4.5,2.9c-1.5,1-2.9,2.1-4.4,3.2c-1.4,1-2.8,2.1-4.2,3.2c-1.4,1.1-2.8,2.3-4.2,3.5c-1.3,1.1-2.6,2.3-3.9,3.5
			c-1.4,1.3-2.7,2.6-4,3.9c-1.2,1.2-2.4,2.5-3.6,3.7c-1.3,1.4-2.5,2.8-3.7,4.2c-1.1,1.3-2.2,2.6-3.3,4c-1.2,1.5-2.3,2.9-3.4,4.4
			c-1,1.4-2,2.9-3,4.3c-1,1.5-2.1,3.1-3,4.6c-1,1.5-1.9,3.1-2.8,4.7c-0.9,1.6-1.8,3.1-2.6,4.8c-0.9,1.7-1.7,3.4-2.5,5.2
			c-0.7,1.6-1.5,3.1-2.2,4.7c-0.2,0.6-0.5,1.1-0.8,1.7H22.3V77.9c0-30.7,25-55.7,55.7-55.7h356.2c30.7,0,55.7,25,55.7,55.7V200.3z"
			/>
	</g>
</g>
<g>
	<g>
		<path class="st0" d="M256,178.1c-43,0-77.9,34.9-77.9,77.9s35,77.9,77.9,77.9s77.9-34.9,77.9-77.9S299,178.1,256,178.1z
			 M256,311.7c-30.7,0-55.7-25-55.7-55.7s25-55.7,55.7-55.7s55.7,25,55.7,55.7S286.7,311.7,256,311.7z"/>
	</g>
</g>
<g>
	<g>
		<path class="st0" d="M434.1,66.8h-33.4c-6.2,0-11.1,5-11.1,11.1v33.4c0,6.1,5,11.1,11.1,11.1h33.4c6.2,0,11.1-5,11.1-11.1V77.9
			C445.2,71.8,440.2,66.8,434.1,66.8z M423,100.2h-11.1V89H423V100.2z"/>
	</g>
</g>
</svg>
