<svg width="175" height="55" viewBox="0 0 175 55" fill="none" xmlns="http://www.w3.org/2000/svg">
<path fill-rule="evenodd" clip-rule="evenodd" d="M110.24 4.19548H3.48649V50.682H52.0336V54.1685H0V0.708984H113.727V4.21306H110.24V4.19548Z" fill="white"/>
<path fill-rule="evenodd" clip-rule="evenodd" d="M71.7243 34.4851L68.5028 41.3883H66.4109L79.2133 13.859L91.3044 41.3883H89.2544L86.2002 34.4851H71.7243ZM79.1296 18.503L72.6029 32.6024H85.3634L79.1296 18.503ZM33.9747 29.7156C33.0822 28.5162 31.9944 27.6376 30.7114 27.0798C30.3209 26.9124 29.8607 26.7451 29.3307 26.5777L29.7073 26.3267C30.4604 25.8246 31.0879 25.1134 31.59 24.193C32.1199 23.2725 32.3849 22.2545 32.3849 21.1388C32.3849 20.2463 32.1897 19.3816 31.7992 18.5449C31.4366 17.7081 30.9066 16.969 30.2093 16.3274C28.7032 14.905 26.681 14.1937 24.1428 14.1937H16.361L16.3192 41.3883H26.3184C27.5735 41.3883 28.759 41.1931 29.8746 40.8026C31.0182 40.3842 32.0084 39.8125 32.8451 39.0873C33.654 38.3621 34.2676 37.5393 34.686 36.6188C35.1323 35.6705 35.3554 34.7082 35.3554 33.732C35.3554 32.2258 34.8952 30.887 33.9747 29.7156ZM24.0592 26.0338H18.2437V16.1183H24.1428C25.4817 16.1183 26.6252 16.3553 27.5735 16.8295C28.5498 17.3037 29.275 17.9312 29.7491 18.7122C30.2512 19.4653 30.5022 20.2742 30.5022 21.1388C30.5022 22.2266 30.1675 23.147 29.4981 23.9001C28.8566 24.6532 28.1732 25.1831 27.448 25.4899C26.946 25.6852 26.4439 25.8246 25.9419 25.9083C25.4398 25.992 24.8122 26.0338 24.0592 26.0338ZM30.0838 38.6689C28.996 39.2267 27.7409 39.5056 26.3184 39.5056H18.2437V27.9584H24.9378C26.9739 27.9584 28.6613 28.2512 30.0001 28.837C30.9485 29.2554 31.7573 29.9108 32.4267 30.8034C33.124 31.668 33.4727 32.6442 33.4727 33.732C33.4727 34.7082 33.1798 35.6426 32.5941 36.5352C32.0084 37.3998 31.1716 38.111 30.0838 38.6689ZM55.5935 40.8863C54.3384 41.4162 52.9995 41.6812 51.5771 41.6812C50.2104 41.6812 48.8855 41.4162 47.6025 40.8863C46.3473 40.3285 45.2316 39.5475 44.2554 38.5434C43.2792 37.595 42.5261 36.4794 41.9962 35.1963C41.4941 33.9133 41.2431 32.5606 41.2431 31.1381V14.1937H43.1258V31.1381C43.1258 32.3095 43.335 33.4252 43.7534 34.4851C44.1996 35.545 44.8133 36.4654 45.5942 37.2464C46.4031 38.0553 47.3235 38.6828 48.3555 39.1291C49.3875 39.5475 50.4614 39.7567 51.5771 39.7567C52.7206 39.7567 53.8084 39.5475 54.8404 39.1291C55.8724 38.6828 56.7929 38.0553 57.6017 37.2464C58.3827 36.4654 58.9824 35.545 59.4007 34.4851C59.847 33.4252 60.0702 32.3095 60.0702 31.1381V14.1937H61.9529V31.1381C61.9529 32.5606 61.6879 33.9133 61.1579 35.1963C60.6559 36.4794 59.9167 37.595 58.9405 38.5434C57.9643 39.5475 56.8486 40.3285 55.5935 40.8863ZM114.675 39.5056V41.3883H97.3539L110.533 16.1183H96.3916V14.1937H113.671L100.534 39.5056H114.675ZM139.304 41.3883V39.422H123.573V39.4168H121.69V41.3883H139.304ZM121.69 28.7579H123.573V28.7533H139.318V26.8288H123.573V26.8237H121.69V28.7579ZM123.573 16.1183V16.1236H121.69V14.1937H139.304V16.1183H123.573ZM151.219 27.6655L162.515 41.3883H165.026L155.194 29.4645C156.114 29.4645 156.979 29.4227 157.788 29.339C158.625 29.2275 159.475 28.9764 160.34 28.5859C161.595 28.056 162.683 27.1914 163.603 25.992C164.524 24.7648 164.984 23.3841 164.984 21.85C164.984 20.8738 164.761 19.9255 164.314 19.0051C163.896 18.0846 163.282 17.2618 162.474 16.5366C161.637 15.7836 160.661 15.2118 159.545 14.8213C158.429 14.4029 157.23 14.1937 155.947 14.1937H146.45V41.3883H148.332V16.0764H155.947C157.369 16.0764 158.625 16.3553 159.712 16.9132C160.8 17.471 161.637 18.1962 162.223 19.0887C162.808 19.9534 163.101 20.8738 163.101 21.85C163.101 22.9378 162.753 23.9419 162.055 24.8624C161.358 25.7549 160.535 26.4243 159.587 26.8706C158.304 27.4005 156.63 27.6655 154.566 27.6655H151.219ZM174.697 41.3883V14.1937H172.814V41.3883H174.697Z" fill="white"/>
</svg>
