<svg width="256" height="80" viewBox="0 0 256 80" fill="none" xmlns="http://www.w3.org/2000/svg">
<path fill-rule="evenodd" clip-rule="evenodd" d="M160.969 6.06105H5.09083V73.9388H75.9773V79.0296H0V0.970215H166.059V6.08667H160.969V6.06105Z" fill="#3C3D49"/>
<path fill-rule="evenodd" clip-rule="evenodd" d="M104.73 50.2887L100.026 60.3686H96.972L115.665 20.1714L133.32 60.3686H130.327L125.868 50.2887H104.73ZM115.543 26.9524L106.013 47.5397H124.646L115.543 26.9524ZM49.61 43.3245C48.3068 41.5732 46.7185 40.2904 44.845 39.4758C44.2749 39.2315 43.6029 38.9871 42.8291 38.7427L43.3789 38.3762C44.4785 37.6431 45.3948 36.6046 46.1279 35.2606C46.9017 33.9166 47.2886 32.4301 47.2886 30.801C47.2886 29.4978 47.0035 28.2353 46.4334 27.0135C45.9039 25.7917 45.1301 24.7124 44.112 23.7757C41.9127 21.6986 38.96 20.6601 35.2539 20.6601H23.8912L23.8301 60.3686H38.4306C40.2633 60.3686 41.9942 60.0835 43.6232 59.5133C45.293 58.9024 46.7388 58.0675 47.9606 57.0086C49.1417 55.9498 50.0377 54.7483 50.6486 53.4043C51.3002 52.0196 51.626 50.6146 51.626 49.1891C51.626 46.9899 50.954 45.035 49.61 43.3245ZM35.1317 37.9486H26.6402V23.4702H35.2539C37.2088 23.4702 38.8786 23.8164 40.2633 24.5088C41.6887 25.2011 42.7476 26.1175 43.44 27.2578C44.173 28.3574 44.5396 29.5385 44.5396 30.801C44.5396 32.3894 44.0509 33.7334 43.0734 34.833C42.1367 35.9326 41.1389 36.7064 40.08 37.1544C39.3469 37.4395 38.6139 37.6431 37.8808 37.7653C37.1477 37.8875 36.2313 37.9486 35.1317 37.9486ZM43.9287 56.3977C42.3403 57.2123 40.5076 57.6195 38.4306 57.6195H26.6402V40.7587H36.4146C39.3877 40.7587 41.8516 41.1863 43.8065 42.0416C45.1912 42.6525 46.3723 43.6096 47.3497 44.9128C48.3679 46.1754 48.877 47.6008 48.877 49.1891C48.877 50.6146 48.4493 51.9789 47.5941 53.2822C46.7388 54.5447 45.517 55.5832 43.9287 56.3977ZM81.1769 59.6355C79.3442 60.4093 77.3893 60.7962 75.3122 60.7962C73.3166 60.7962 71.3821 60.4093 69.5087 59.6355C67.676 58.821 66.0469 57.6806 64.6215 56.2145C63.196 54.8298 62.0964 53.2007 61.3226 51.3273C60.5895 49.4539 60.223 47.4786 60.223 45.4016V20.6601H62.972V45.4016C62.972 47.1121 63.2775 48.7411 63.8884 50.2887C64.54 51.8364 65.436 53.1803 66.5764 54.3207C67.7574 55.5018 69.1014 56.4181 70.6083 57.0697C72.1152 57.6806 73.6832 57.9861 75.3122 57.9861C76.982 57.9861 78.5704 57.6806 80.0772 57.0697C81.5841 56.4181 82.9281 55.5018 84.1092 54.3207C85.2495 53.1803 86.1251 51.8364 86.736 50.2887C87.3877 48.7411 87.7135 47.1121 87.7135 45.4016V20.6601H90.4625V45.4016C90.4625 47.4786 90.0756 49.4539 89.3018 51.3273C88.5687 53.2007 87.4895 54.8298 86.0641 56.2145C84.6386 57.6806 83.0096 58.821 81.1769 59.6355ZM167.445 57.6195V60.3686H142.154L161.397 23.4702H140.749V20.6601H165.979L146.797 57.6195H167.445ZM203.407 60.3686V57.4974H180.438V57.4898H177.689V60.3686H203.407ZM177.689 41.9261H180.438V41.9194H203.428V39.1093H180.438V39.1019H177.689V41.9261ZM180.438 23.4702V23.478H177.689V20.6601H203.407V23.4702H180.438ZM220.806 40.3311L237.3 60.3686H240.965L226.609 42.958C227.953 42.958 229.216 42.8969 230.397 42.7747C231.619 42.6118 232.861 42.2452 234.123 41.6751C235.956 40.9013 237.544 39.6387 238.888 37.8875C240.232 36.0955 240.904 34.0795 240.904 31.8396C240.904 30.4141 240.578 29.0294 239.927 27.6855C239.316 26.3415 238.42 25.14 237.239 24.0811C236.017 22.9815 234.592 22.1466 232.963 21.5765C231.333 20.9656 229.582 20.6601 227.709 20.6601H213.841V60.3686H216.59V23.4092H227.709C229.786 23.4092 231.619 23.8164 233.207 24.631C234.795 25.4455 236.017 26.5044 236.872 27.8076C237.728 29.0702 238.155 30.4141 238.155 31.8396C238.155 33.4279 237.646 34.8941 236.628 36.2381C235.61 37.5413 234.408 38.5187 233.024 39.1704C231.15 39.9442 228.707 40.3311 225.693 40.3311H220.806ZM255.087 60.3686V20.6601H252.338V60.3686H255.087Z" fill="#3C3D49"/>
</svg>
