<?xml version="1.0" encoding="utf-8"?>
<!-- Generator: Adobe Illustrator 19.2.1, SVG Export Plug-In . SVG Version: 6.00 Build 0)  -->
<svg version="1.1" id="Layer_1" xmlns="http://www.w3.org/2000/svg" xmlns:xlink="http://www.w3.org/1999/xlink" x="0px" y="0px"
	 viewBox="0 0 380.8 110.4" style="enable-background:new 0 0 380.8 110.4;" xml:space="preserve">
<style type="text/css">
	.st0{fill:#777777;}
	.st1{fill:#777777;stroke:#777777;stroke-width:0.4;stroke-miterlimit:10;}
</style>
<g>
	<path class="st0" d="M0,66.7V0h29.7c11.6,0,18.7,7,18.7,17c0,8.4-5.6,14-11.7,15.3c7.1,1.1,13,8.4,13,16.4c0,10.7-7.1,18-19.3,18H0
		z M39.8,18.2c0-6-4-10.8-11.5-10.8h-20v21.5h20C35.8,28.9,39.8,24.3,39.8,18.2z M41.1,47.8c0-6.1-4.2-11.5-12.3-11.5H8.3v23h20.5
		C36.5,59.3,41.1,54.9,41.1,47.8z"/>
	<path class="st0" d="M62.9,40.8V0h8.4v40.6c0,12.2,6.5,19.9,18.8,19.9S109,52.8,109,40.6V0h8.4v40.7c0,16.6-9.2,27.2-27.3,27.2
		C72.1,67.9,62.9,57.2,62.9,40.8z"/>
	<path class="st0" d="M178,66.7l-5.9-14.9h-33.2L133,66.7h-9.5L150.4,0h10.3l26.8,66.7H178z M155.5,8.5l-14.1,36h28.3L155.5,8.5z"/>
	<path class="st0" d="M193.2,66.7v-6.9l37.5-52.4h-37.5V0h48.2v6.9l-37.6,52.4h38.3v7.4C242.1,66.7,193.2,66.7,193.2,66.7z"/>
	<path class="st0" d="M254.7,66.7V0h43.7v7.4H263v21.5h34.7v7.4H263v23h35.4v7.4C298.4,66.7,254.7,66.7,254.7,66.7z"/>
	<path class="st0" d="M350.2,66.7l-16.9-26.5h-13.4v26.5h-8.3V0h26.8c12.2,0,21,7.8,21,20.1c0,12-8.3,18.6-17.4,19.4l18,27.2H350.2z
		 M350.8,20.1c0-7.6-5.5-12.7-13.4-12.7h-17.5v25.5h17.5C345.3,32.9,350.8,27.6,350.8,20.1z"/>
	<path class="st0" d="M372.5,66.7V0h8.3v66.7H372.5z"/>
</g>
<g>
	<path class="st1" d="M6.5,92.5c0.7,0,1.3,0.2,1.9,0.6s1.1,0.9,1.5,1.6V88h1.9v6.7c0.4-0.6,0.8-1.2,1.4-1.6s1.2-0.6,2-0.6
		c0.7,0,1.3,0.2,1.8,0.5c0.6,0.3,1,0.7,1.4,1.3c0.4,0.6,0.7,1.3,0.9,2.1s0.3,1.7,0.3,2.8s-0.1,1.9-0.3,2.8c-0.2,0.8-0.5,1.5-0.9,2.1
		s-0.9,1-1.4,1.3c-0.6,0.3-1.2,0.5-1.8,0.5c-0.7,0-1.3-0.2-1.9-0.6s-1.1-0.9-1.5-1.6v6.7H9.9v-6.7c-0.4,0.6-0.8,1.2-1.4,1.6
		s-1.3,0.6-2,0.6s-1.3-0.2-1.8-0.5c-0.6-0.3-1-0.7-1.4-1.3c-0.4-0.6-0.7-1.3-0.9-2.1s-0.3-1.7-0.3-2.8c0-1,0.1-1.9,0.3-2.7
		c0.2-0.8,0.5-1.5,0.9-2.1s0.9-1,1.4-1.3C5.3,92.6,5.9,92.5,6.5,92.5z M7.1,94.2c-0.5,0-0.9,0.1-1.3,0.4c-0.4,0.2-0.7,0.6-1,1
		s-0.5,0.9-0.6,1.5S4,98.3,4,99s0.1,1.3,0.2,1.9s0.3,1.1,0.6,1.5s0.6,0.8,1,1s0.8,0.4,1.3,0.4c0.6,0,1.2-0.2,1.7-0.6
		s0.9-0.9,1.2-1.4v-5.7c-0.3-0.6-0.7-1-1.2-1.4C8.2,94.4,7.7,94.2,7.1,94.2z M14.8,103.9c0.5,0,0.9-0.1,1.3-0.4c0.4-0.2,0.7-0.6,1-1
		s0.5-0.9,0.6-1.5s0.2-1.2,0.2-1.9s-0.1-1.3-0.2-1.9s-0.3-1.1-0.6-1.5c-0.3-0.4-0.6-0.8-1-1s-0.8-0.4-1.3-0.4
		c-0.6,0-1.1,0.2-1.7,0.6s-0.9,0.9-1.2,1.4v5.7c0.3,0.6,0.7,1,1.2,1.4C13.6,103.7,14.2,103.9,14.8,103.9z"/>
	<path class="st1" d="M31.1,105.3v-1.4c-1.1,1.2-2.4,1.7-4.2,1.7c-0.5,0-1.1-0.1-1.6-0.3s-1-0.4-1.4-0.8s-0.8-0.8-1-1.3
		c-0.3-0.5-0.4-1.1-0.4-1.8c0-0.7,0.1-1.3,0.4-1.8s0.6-1,1-1.3s0.9-0.6,1.4-0.8c0.5-0.2,1-0.2,1.6-0.2c0.9,0,1.7,0.1,2.4,0.4
		s1.3,0.7,1.8,1.3v-2.3c0-0.8-0.3-1.5-0.9-2c-0.6-0.5-1.4-0.7-2.3-0.7c-1.5,0-2.8,0.6-3.8,1.7l-0.9-1.4c1.3-1.4,3-2.1,5-2.1
		c0.7,0,1.3,0.1,1.9,0.2c0.6,0.2,1.1,0.4,1.5,0.7c0.4,0.3,0.8,0.8,1.1,1.3c0.3,0.5,0.4,1.2,0.4,2v8.6h-2V105.3z M27.6,104.3
		c0.7,0,1.3-0.1,2-0.4c0.6-0.3,1.1-0.6,1.5-1.2v-2.4c-0.4-0.5-0.9-0.9-1.5-1.2c-0.6-0.3-1.3-0.4-2-0.4c-0.9,0-1.7,0.3-2.2,0.8
		c-0.6,0.5-0.9,1.2-0.9,2s0.3,1.5,0.9,2C26,104,26.7,104.3,27.6,104.3z"/>
	<path class="st1" d="M42.4,105.7c-1,0-1.8-0.2-2.6-0.5c-0.8-0.4-1.4-0.9-1.9-1.5s-0.9-1.4-1.2-2.3c-0.3-0.9-0.4-1.8-0.4-2.9
		c0-1.5,0.1-2.8,0.4-3.9s0.7-2,1.2-2.7s1.2-1.3,2.1-1.7c0.9-0.4,1.8-0.7,2.9-0.8c0.7-0.1,1.3-0.2,1.7-0.3c0.5-0.1,0.8-0.2,1.1-0.3
		c0.3-0.1,0.5-0.2,0.6-0.3c0.1-0.1,0.2-0.2,0.2-0.4h1.9c0,0.5-0.2,0.9-0.5,1.3c-0.3,0.4-0.7,0.6-1.2,0.8s-1,0.4-1.6,0.5
		S44,90.9,43.4,91c-0.9,0.1-1.7,0.3-2.3,0.6c-0.6,0.3-1.1,0.6-1.5,0.9c-0.4,0.4-0.7,0.8-0.9,1.2c-0.2,0.5-0.4,1-0.5,1.5
		c0.2-0.4,0.5-0.7,0.8-1c0.3-0.3,0.7-0.6,1.1-0.8c0.4-0.2,0.8-0.4,1.3-0.6c0.5-0.1,1-0.2,1.5-0.2c0.9,0,1.7,0.2,2.4,0.5
		c0.7,0.3,1.3,0.8,1.9,1.4c0.5,0.6,0.9,1.3,1.2,2.1c0.3,0.8,0.4,1.6,0.4,2.5s-0.1,1.8-0.4,2.6c-0.3,0.8-0.7,1.5-1.2,2.1
		s-1.2,1.1-1.9,1.4C44.3,105.5,43.4,105.7,42.4,105.7z M42.4,103.9c0.7,0,1.3-0.1,1.8-0.4s0.9-0.6,1.3-1.1c0.4-0.4,0.6-1,0.8-1.5
		c0.2-0.6,0.3-1.2,0.3-1.9c0-0.6-0.1-1.2-0.3-1.8c-0.2-0.6-0.5-1.1-0.8-1.5c-0.4-0.4-0.8-0.8-1.3-1.1s-1.1-0.4-1.8-0.4
		c-0.7,0-1.3,0.1-1.8,0.4s-1,0.6-1.3,1.1c-0.4,0.4-0.6,1-0.8,1.5c-0.2,0.6-0.3,1.2-0.3,1.8c0,0.7,0.1,1.3,0.3,1.9
		c0.2,0.6,0.5,1.1,0.8,1.5c0.4,0.4,0.8,0.8,1.3,1.1S41.8,103.9,42.4,103.9z"/>
	<path class="st1" d="M58.1,105.7c-0.9,0-1.7-0.2-2.4-0.6s-1.3-0.9-1.8-1.6v6.7H52V92.9h1.9v1.9c0.5-0.6,1-1.2,1.8-1.6
		c0.8-0.4,1.6-0.6,2.4-0.6s1.6,0.2,2.3,0.5c0.7,0.3,1.3,0.7,1.8,1.3c0.5,0.6,0.9,1.3,1.1,2.1c0.3,0.8,0.4,1.7,0.4,2.8
		s-0.1,1.9-0.4,2.8c-0.3,0.8-0.7,1.5-1.1,2.1c-0.5,0.6-1.1,1-1.8,1.3C59.7,105.5,59,105.7,58.1,105.7z M57.6,103.9
		c0.6,0,1.2-0.1,1.7-0.4c0.5-0.2,0.9-0.6,1.3-1c0.3-0.4,0.6-0.9,0.8-1.5c0.2-0.6,0.3-1.2,0.3-1.9s-0.1-1.3-0.3-1.9
		c-0.2-0.6-0.4-1.1-0.8-1.5c-0.3-0.4-0.8-0.8-1.3-1s-1.1-0.4-1.7-0.4c-0.8,0-1.5,0.2-2.2,0.6c-0.7,0.4-1.2,0.9-1.5,1.4v5.7
		c0.3,0.6,0.9,1,1.5,1.4C56.1,103.7,56.9,103.9,57.6,103.9z"/>
	<path class="st1" d="M66.8,105.3V92.7h1.9v9.6l6.6-9.6h1.9v12.6h-1.9v-9.8l-6.6,9.8H66.8z"/>
	<path class="st1" d="M89.7,105.3l-4.5-5.6l-2.1,2.1v3.6h-1.9V92.8h1.9v6.7l6.6-6.7h2.5l-5.6,5.7l5.6,6.9L89.7,105.3L89.7,105.3z"/>
	<path class="st1" d="M102.4,105.3v-1.4c-1.1,1.2-2.4,1.7-4.2,1.7c-0.5,0-1.1-0.1-1.6-0.3s-1-0.4-1.4-0.8s-0.8-0.8-1-1.3
		c-0.3-0.5-0.4-1.1-0.4-1.8c0-0.7,0.1-1.3,0.4-1.8s0.6-1,1-1.3s0.9-0.6,1.4-0.8c0.5-0.2,1-0.2,1.6-0.2c0.9,0,1.7,0.1,2.4,0.4
		c0.7,0.3,1.3,0.7,1.8,1.3v-2.3c0-0.8-0.3-1.5-0.9-2s-1.4-0.7-2.3-0.7c-1.5,0-2.8,0.6-3.8,1.7l-0.9-1.4c1.3-1.4,3-2.1,5-2.1
		c0.7,0,1.3,0.1,1.9,0.2c0.6,0.2,1.1,0.4,1.5,0.7c0.4,0.3,0.8,0.8,1.1,1.3c0.3,0.5,0.4,1.2,0.4,2v8.6h-2V105.3z M98.9,104.3
		c0.7,0,1.3-0.1,2-0.4c0.6-0.3,1.1-0.6,1.5-1.2v-2.4c-0.4-0.5-0.9-0.9-1.5-1.2c-0.6-0.3-1.3-0.4-2-0.4c-0.9,0-1.7,0.3-2.2,0.8
		c-0.6,0.5-0.9,1.2-0.9,2s0.3,1.5,0.9,2C97.3,104,98,104.3,98.9,104.3z"/>
	<path class="st1" d="M122.8,105.3v-1.4c-1.1,1.2-2.4,1.7-4.2,1.7c-0.5,0-1.1-0.1-1.6-0.3s-1-0.4-1.4-0.8s-0.8-0.8-1-1.3
		c-0.3-0.5-0.4-1.1-0.4-1.8c0-0.7,0.1-1.3,0.4-1.8s0.6-1,1-1.3s0.9-0.6,1.4-0.8c0.5-0.2,1-0.2,1.6-0.2c0.9,0,1.7,0.1,2.4,0.4
		s1.3,0.7,1.8,1.3v-2.3c0-0.8-0.3-1.5-0.9-2c-0.6-0.5-1.4-0.7-2.3-0.7c-1.5,0-2.8,0.6-3.8,1.7l-0.9-1.4c1.3-1.4,3-2.1,5-2.1
		c0.7,0,1.3,0.1,1.9,0.2c0.6,0.2,1.1,0.4,1.5,0.7c0.4,0.3,0.8,0.8,1.1,1.3s0.4,1.2,0.4,2v8.6h-2V105.3z M119.3,104.3
		c0.7,0,1.3-0.1,2-0.4c0.6-0.3,1.1-0.6,1.5-1.2v-2.4c-0.4-0.5-0.9-0.9-1.5-1.2c-0.6-0.3-1.3-0.4-2-0.4c-0.9,0-1.7,0.3-2.2,0.8
		c-0.6,0.5-0.9,1.2-0.9,2s0.3,1.5,0.9,2C117.7,104,118.4,104.3,119.3,104.3z"/>
	<path class="st1" d="M128.6,105.3V92.7h6.9c1.1,0,2,0.3,2.6,0.9s0.9,1.4,0.9,2.3c0,0.8-0.2,1.4-0.6,1.9c-0.4,0.5-0.9,0.8-1.4,1
		c0.3,0.1,0.6,0.2,0.9,0.4c0.3,0.2,0.5,0.4,0.7,0.7c0.2,0.3,0.4,0.6,0.5,0.9s0.2,0.7,0.2,1c0,1-0.3,1.8-1,2.5
		c-0.6,0.6-1.5,0.9-2.7,0.9L128.6,105.3L128.6,105.3z M135.2,98c0.6,0,1.1-0.2,1.4-0.5s0.5-0.7,0.5-1.2s-0.2-1-0.5-1.3
		s-0.8-0.5-1.4-0.5h-4.6V98H135.2z M135.3,103.6c0.6,0,1.1-0.2,1.5-0.5s0.5-0.8,0.5-1.4c0-0.5-0.2-0.9-0.5-1.3s-0.8-0.6-1.5-0.6
		h-4.7v3.8H135.3z"/>
	<path class="st1" d="M145.3,105.3V94.5h-3.6v-1.7h9.3v1.7h-3.7v10.8H145.3z"/>
	<path class="st1" d="M159,105.7c-1,0-1.8-0.2-2.6-0.5s-1.4-0.8-2-1.4c-0.5-0.6-0.9-1.3-1.2-2.1c-0.3-0.8-0.4-1.7-0.4-2.6
		s0.1-1.8,0.4-2.6c0.3-0.8,0.7-1.5,1.2-2.1s1.2-1.1,2-1.4s1.6-0.5,2.6-0.5s1.8,0.2,2.6,0.5s1.4,0.8,2,1.4c0.5,0.6,0.9,1.3,1.2,2.1
		c0.3,0.8,0.4,1.7,0.4,2.6s-0.1,1.8-0.4,2.6c-0.3,0.8-0.7,1.5-1.2,2.1s-1.2,1.1-2,1.4C160.8,105.5,159.9,105.7,159,105.7z
		 M159,103.9c0.7,0,1.3-0.1,1.8-0.4s0.9-0.6,1.3-1.1c0.4-0.4,0.6-1,0.8-1.5c0.2-0.6,0.3-1.2,0.3-1.8c0-0.6-0.1-1.3-0.3-1.8
		c-0.2-0.6-0.5-1.1-0.8-1.5c-0.4-0.4-0.8-0.8-1.3-1.1s-1.1-0.4-1.8-0.4s-1.3,0.1-1.8,0.4s-1,0.6-1.3,1.1c-0.4,0.4-0.6,1-0.8,1.5
		c-0.2,0.6-0.3,1.2-0.3,1.8c0,0.6,0.1,1.3,0.3,1.8c0.2,0.6,0.5,1.1,0.8,1.5c0.4,0.4,0.8,0.8,1.3,1.1S158.3,103.9,159,103.9z"/>
	<path class="st1" d="M174.6,105.7c-0.9,0-1.7-0.2-2.4-0.6s-1.3-0.9-1.8-1.6v6.7h-2V92.9h1.9v1.9c0.5-0.6,1-1.2,1.8-1.6
		s1.6-0.6,2.4-0.6c0.8,0,1.6,0.2,2.3,0.5s1.3,0.7,1.8,1.3c0.5,0.6,0.9,1.3,1.1,2.1c0.3,0.8,0.4,1.7,0.4,2.8s-0.1,1.9-0.4,2.8
		c-0.3,0.8-0.7,1.5-1.1,2.1c-0.5,0.6-1.1,1-1.8,1.3C176.2,105.5,175.4,105.7,174.6,105.7z M174.1,103.9c0.6,0,1.2-0.1,1.7-0.4
		c0.5-0.2,0.9-0.6,1.3-1c0.3-0.4,0.6-0.9,0.8-1.5s0.3-1.2,0.3-1.9s-0.1-1.3-0.3-1.9s-0.4-1.1-0.8-1.5c-0.3-0.4-0.8-0.8-1.3-1
		s-1.1-0.4-1.7-0.4c-0.8,0-1.5,0.2-2.2,0.6s-1.2,0.9-1.5,1.4v5.7c0.3,0.6,0.9,1,1.5,1.4C172.6,103.7,173.3,103.9,174.1,103.9z"/>
	<path class="st1" d="M188.8,105.7c-0.9,0-1.8-0.2-2.6-0.5s-1.4-0.8-2-1.4c-0.5-0.6-1-1.3-1.3-2.1c-0.3-0.8-0.5-1.7-0.5-2.6
		s0.2-1.8,0.5-2.6c0.3-0.8,0.7-1.5,1.3-2.1c0.5-0.6,1.2-1.1,2-1.4s1.6-0.5,2.6-0.5c1.1,0,2.1,0.2,2.8,0.6s1.3,0.9,1.8,1.6l-1.3,1.2
		c-0.4-0.6-0.9-1-1.4-1.2c-0.5-0.3-1.1-0.4-1.8-0.4s-1.3,0.1-1.8,0.4c-0.5,0.2-1,0.6-1.4,1s-0.7,0.9-0.9,1.5s-0.3,1.2-0.3,1.9
		s0.1,1.3,0.3,1.9s0.5,1.1,0.9,1.5s0.8,0.8,1.4,1c0.5,0.2,1.1,0.4,1.8,0.4c1.3,0,2.4-0.5,3.2-1.6l1.3,1.2c-0.5,0.6-1.1,1.1-1.8,1.6
		C190.9,105.4,189.9,105.7,188.8,105.7z"/>
	<path class="st1" d="M204.7,105.3l-4.5-5.6l-2.1,2.1v3.6h-2V92.8h2v6.7l6.6-6.7h2.5l-5.6,5.7l5.6,6.9L204.7,105.3L204.7,105.3z"/>
	<path class="st1" d="M209.5,105.3V92.7h2v9.6l6.6-9.6h1.9v12.6h-2v-9.8l-6.6,9.8H209.5z"/>
	<path class="st1" d="M232,105.3l-3.8-5.1l-3.8,5.1h-2.2l4.8-6.4l-4.5-6.1h2.3l3.5,4.8l3.5-4.8h2.3l-4.6,6.1l4.8,6.4H232z"/>
	<path class="st1" d="M243.2,105.3V92.7h2v9.6l6.6-9.6h1.9v12.6h-2v-9.8l-6.6,9.8H243.2z"/>
	<path class="st1" d="M257.5,105.3V92.7h2v5.2h6.6v-5.2h2v12.6h-2v-5.6h-6.6v5.6H257.5z"/>
	<path class="st1" d="M274.2,105.3V94.5h-3.6v-1.7h9.3v1.7h-3.7v10.8H274.2z"/>
	<path class="st1" d="M288,105.7c-0.9,0-1.8-0.2-2.6-0.5s-1.5-0.8-2-1.4c-0.6-0.6-1-1.3-1.3-2.1c-0.3-0.8-0.5-1.7-0.5-2.7
		c0-0.9,0.2-1.8,0.5-2.6c0.3-0.8,0.7-1.5,1.3-2.1c0.5-0.6,1.2-1.1,2-1.4s1.6-0.5,2.5-0.5c1,0,1.8,0.2,2.6,0.5s1.4,0.8,1.9,1.4
		s0.9,1.3,1.2,2.1c0.3,0.8,0.4,1.7,0.4,2.6v0.5h-10.2c0,0.6,0.2,1.1,0.4,1.7c0.2,0.5,0.5,1,0.9,1.4s0.9,0.7,1.4,0.9
		c0.5,0.2,1.1,0.4,1.8,0.4c0.7,0,1.4-0.1,2.1-0.4s1.3-0.7,1.8-1.2l0.9,1.3c-0.6,0.6-1.4,1.1-2.2,1.4S289,105.7,288,105.7z
		 M291.9,98.3c0-0.5-0.1-0.9-0.2-1.4c-0.2-0.5-0.4-0.9-0.8-1.4c-0.3-0.4-0.8-0.7-1.3-1s-1.1-0.4-1.8-0.4c-0.7,0-1.3,0.1-1.8,0.4
		s-0.9,0.6-1.3,1c-0.3,0.4-0.6,0.8-0.8,1.3c-0.2,0.5-0.3,1-0.3,1.5H291.9z"/>
	<path class="st1" d="M303.2,105.7c-0.9,0-1.7-0.2-2.4-0.6c-0.7-0.4-1.3-0.9-1.8-1.6v6.7h-2V92.9h2v1.9c0.5-0.6,1-1.2,1.8-1.6
		c0.7-0.4,1.6-0.6,2.4-0.6s1.6,0.2,2.3,0.5c0.7,0.3,1.3,0.7,1.8,1.3c0.5,0.6,0.9,1.3,1.1,2.1c0.3,0.8,0.4,1.7,0.4,2.8
		s-0.1,1.9-0.4,2.8c-0.3,0.8-0.7,1.5-1.1,2.1s-1.1,1-1.8,1.3C304.7,105.5,304,105.7,303.2,105.7z M302.7,103.9
		c0.6,0,1.2-0.1,1.7-0.4c0.5-0.2,0.9-0.6,1.3-1c0.3-0.4,0.6-0.9,0.8-1.5c0.2-0.6,0.3-1.2,0.3-1.9s-0.1-1.3-0.3-1.9
		c-0.2-0.6-0.4-1.1-0.8-1.5c-0.3-0.4-0.8-0.8-1.3-1s-1.1-0.4-1.7-0.4c-0.8,0-1.5,0.2-2.2,0.6s-1.2,0.9-1.5,1.4v5.7
		c0.3,0.6,0.9,1,1.5,1.4C301.2,103.7,301.9,103.9,302.7,103.9z"/>
	<path class="st1" d="M313.8,92.8v4.8h4.7c0.6,0,1.2,0.1,1.7,0.3c0.5,0.2,0.9,0.5,1.2,0.8c0.3,0.4,0.6,0.8,0.8,1.2
		c0.2,0.5,0.2,1,0.2,1.5s-0.1,1-0.3,1.5s-0.4,0.9-0.8,1.2s-0.7,0.6-1.2,0.8c-0.5,0.2-1.1,0.3-1.7,0.3h-6.7V92.6h2.1V92.8z
		 M313.8,99.4v4.2h4.5c0.7,0,1.2-0.2,1.6-0.6s0.5-0.9,0.5-1.5s-0.2-1.1-0.5-1.5c-0.4-0.4-0.9-0.6-1.6-0.6H313.8z"/>
	<path class="st1" d="M331.1,105.7c-0.9,0-1.8-0.2-2.6-0.5s-1.5-0.8-2-1.4c-0.6-0.6-1-1.3-1.3-2.1c-0.3-0.8-0.5-1.7-0.5-2.7
		c0-0.9,0.2-1.8,0.5-2.6c0.3-0.8,0.7-1.5,1.3-2.1c0.5-0.6,1.2-1.1,2-1.4s1.6-0.5,2.5-0.5c1,0,1.8,0.2,2.6,0.5s1.4,0.8,1.9,1.4
		s0.9,1.3,1.2,2.1c0.3,0.8,0.4,1.7,0.4,2.6v0.5h-10.2c0,0.6,0.2,1.1,0.4,1.7c0.2,0.5,0.5,1,0.9,1.4s0.9,0.7,1.4,0.9
		c0.5,0.2,1.1,0.4,1.8,0.4c0.7,0,1.4-0.1,2.1-0.4s1.3-0.7,1.8-1.2l0.9,1.3c-0.6,0.6-1.4,1.1-2.2,1.4S332.1,105.7,331.1,105.7z
		 M335,98.3c0-0.5-0.1-0.9-0.2-1.4c-0.2-0.5-0.4-0.9-0.8-1.4c-0.3-0.4-0.8-0.7-1.3-1s-1.1-0.4-1.8-0.4c-0.7,0-1.3,0.1-1.8,0.4
		s-0.9,0.6-1.3,1c-0.3,0.4-0.6,0.8-0.8,1.3c-0.2,0.5-0.3,1-0.3,1.5H335z"/>
	<path class="st1" d="M346.2,105.7c-0.9,0-1.7-0.2-2.4-0.6c-0.7-0.4-1.3-0.9-1.8-1.6v6.7h-2V92.9h2v1.9c0.5-0.6,1-1.2,1.8-1.6
		c0.7-0.4,1.6-0.6,2.4-0.6s1.6,0.2,2.3,0.5c0.7,0.3,1.3,0.7,1.8,1.3c0.5,0.6,0.9,1.3,1.1,2.1c0.3,0.8,0.4,1.7,0.4,2.8
		s-0.1,1.9-0.4,2.8c-0.3,0.8-0.7,1.5-1.1,2.1s-1.1,1-1.8,1.3C347.8,105.5,347.1,105.7,346.2,105.7z M345.7,103.9
		c0.6,0,1.2-0.1,1.7-0.4c0.5-0.2,0.9-0.6,1.3-1c0.3-0.4,0.6-0.9,0.8-1.5c0.2-0.6,0.3-1.2,0.3-1.9s-0.1-1.3-0.3-1.9
		c-0.2-0.6-0.4-1.1-0.8-1.5c-0.3-0.4-0.8-0.8-1.3-1s-1.1-0.4-1.7-0.4c-0.8,0-1.5,0.2-2.2,0.6s-1.2,0.9-1.5,1.4v5.7
		c0.3,0.6,0.9,1,1.5,1.4C344.2,103.7,345,103.9,345.7,103.9z"/>
	<path class="st1" d="M360.4,105.7c-1,0-1.8-0.2-2.6-0.5s-1.4-0.8-2-1.4s-0.9-1.3-1.2-2.1c-0.3-0.8-0.4-1.7-0.4-2.6s0.1-1.8,0.4-2.6
		c0.3-0.8,0.7-1.5,1.2-2.1s1.2-1.1,2-1.4s1.6-0.5,2.6-0.5s1.8,0.2,2.6,0.5c0.8,0.3,1.4,0.8,2,1.4c0.5,0.6,0.9,1.3,1.2,2.1
		c0.3,0.8,0.4,1.7,0.4,2.6s-0.1,1.8-0.4,2.6s-0.7,1.5-1.2,2.1s-1.2,1.1-2,1.4C362.2,105.5,361.4,105.7,360.4,105.7z M360.4,103.9
		c0.7,0,1.3-0.1,1.8-0.4s0.9-0.6,1.3-1.1c0.4-0.4,0.6-1,0.8-1.5c0.2-0.6,0.3-1.2,0.3-1.8c0-0.6-0.1-1.3-0.3-1.8
		c-0.2-0.6-0.5-1.1-0.8-1.5c-0.4-0.4-0.8-0.8-1.3-1.1s-1.1-0.4-1.8-0.4c-0.7,0-1.3,0.1-1.8,0.4s-1,0.6-1.3,1.1
		c-0.4,0.4-0.6,1-0.8,1.5c-0.2,0.6-0.3,1.2-0.3,1.8c0,0.6,0.1,1.3,0.3,1.8c0.2,0.6,0.5,1.1,0.8,1.5c0.4,0.4,0.8,0.8,1.3,1.1
		C359.1,103.8,359.7,103.9,360.4,103.9z"/>
	<path class="st1" d="M369.8,105.3V92.7h6.9c1.1,0,2,0.3,2.6,0.9s0.9,1.4,0.9,2.3c0,0.8-0.2,1.4-0.6,1.9s-0.9,0.8-1.4,1
		c0.3,0.1,0.6,0.2,0.9,0.4c0.3,0.2,0.5,0.4,0.7,0.7c0.2,0.3,0.4,0.6,0.5,0.9s0.2,0.7,0.2,1c0,1-0.3,1.8-1,2.5
		c-0.6,0.6-1.5,0.9-2.7,0.9L369.8,105.3L369.8,105.3z M376.4,98c0.6,0,1.1-0.2,1.4-0.5s0.5-0.7,0.5-1.2s-0.2-1-0.5-1.3
		s-0.8-0.5-1.4-0.5h-4.6V98H376.4z M376.5,103.6c0.6,0,1.1-0.2,1.5-0.5s0.5-0.8,0.5-1.4c0-0.5-0.2-0.9-0.5-1.3s-0.8-0.6-1.5-0.6
		h-4.7v3.8H376.5z"/>
</g>
</svg>
