<?xml version="1.0" encoding="utf-8"?>
<!-- Generator: Adobe Illustrator 19.2.1, SVG Export Plug-In . SVG Version: 6.00 Build 0)  -->
<svg version="1.1" id="Layer_1" xmlns="http://www.w3.org/2000/svg" xmlns:xlink="http://www.w3.org/1999/xlink" x="0px" y="0px"
	 viewBox="0 0 400 139.3" style="enable-background:new 0 0 400 139.3;" xml:space="preserve">
<style type="text/css">
	.st0{fill:#FFFFFF;}
	.st1{fill:#FFFFFF;stroke:#FFFFFF;stroke-width:0.4;stroke-miterlimit:10;}
</style>
<g>
	<path class="st0" d="M8.6,82.7V16h29.7C49.9,16,57,23,57,33c0,8.4-5.6,14-11.7,15.3c7.1,1.1,13,8.4,13,16.4c0,10.7-7.1,18-19.3,18
		H8.6z M48.4,34.2c0-6-4-10.8-11.5-10.8h-20v21.5h20C44.4,44.9,48.4,40.3,48.4,34.2z M49.7,63.8c0-6.1-4.2-11.5-12.3-11.5H16.9v23
		h20.5C45.1,75.3,49.7,70.9,49.7,63.8z"/>
	<path class="st0" d="M71.5,56.8V16h8.4v40.6c0,12.2,6.5,19.9,18.8,19.9s18.9-7.7,18.9-19.9V16h8.4v40.7c0,16.6-9.2,27.2-27.3,27.2
		C80.7,83.9,71.5,73.2,71.5,56.8z"/>
	<path class="st0" d="M186.6,82.7l-5.9-14.9h-33.2l-5.9,14.9h-9.5L159,16h10.3l26.8,66.7H186.6z M164.1,24.5l-14.1,36h28.3
		L164.1,24.5z"/>
	<path class="st0" d="M201.8,82.7v-6.9l37.5-52.4h-37.5V16H250v6.9l-37.6,52.4h38.3v7.4H201.8z"/>
	<path class="st0" d="M263.3,82.7V16H307v7.4h-35.4v21.5h34.7v7.4h-34.7v23H307v7.4H263.3z"/>
	<path class="st0" d="M358.8,82.7l-16.9-26.5h-13.4v26.5h-8.3V16H347c12.2,0,21,7.8,21,20.1c0,12-8.3,18.6-17.4,19.4l18,27.2H358.8z
		 M359.4,36.1c0-7.6-5.5-12.7-13.4-12.7h-17.5v25.5H346C353.9,48.9,359.4,43.6,359.4,36.1z"/>
	<path class="st0" d="M381.1,82.7V16h8.3v66.7H381.1z"/>
</g>
<g>
	<path class="st1" d="M15.1,108.5c0.7,0,1.3,0.2,1.9,0.6s1.1,0.9,1.5,1.6V104h1.9v6.7c0.4-0.6,0.8-1.2,1.4-1.6s1.2-0.6,2-0.6
		c0.7,0,1.3,0.2,1.8,0.5c0.6,0.3,1,0.7,1.4,1.3c0.4,0.6,0.7,1.3,0.9,2.1s0.3,1.7,0.3,2.8s-0.1,1.9-0.3,2.8c-0.2,0.8-0.5,1.5-0.9,2.1
		s-0.9,1-1.4,1.3c-0.6,0.3-1.2,0.5-1.8,0.5c-0.7,0-1.3-0.2-1.9-0.6c-0.6-0.4-1.1-0.9-1.5-1.6v6.7h-1.9l0-6.7
		c-0.4,0.6-0.8,1.2-1.4,1.6s-1.3,0.6-2,0.6c-0.7,0-1.3-0.2-1.8-0.5c-0.6-0.3-1-0.7-1.4-1.3c-0.4-0.6-0.7-1.3-0.9-2.1
		s-0.3-1.7-0.3-2.8c0-1,0.1-1.9,0.3-2.7c0.2-0.8,0.5-1.5,0.9-2.1c0.4-0.6,0.9-1,1.4-1.3C13.9,108.6,14.5,108.5,15.1,108.5z
		 M15.7,110.2c-0.5,0-0.9,0.1-1.3,0.4c-0.4,0.2-0.7,0.6-1,1c-0.3,0.4-0.5,0.9-0.6,1.5s-0.2,1.2-0.2,1.9s0.1,1.3,0.2,1.9
		s0.3,1.1,0.6,1.5c0.3,0.4,0.6,0.8,1,1c0.4,0.2,0.8,0.4,1.3,0.4c0.6,0,1.2-0.2,1.7-0.6c0.5-0.4,0.9-0.9,1.2-1.4v-5.7
		c-0.3-0.6-0.7-1-1.2-1.4C16.8,110.4,16.3,110.2,15.7,110.2z M23.4,119.9c0.5,0,0.9-0.1,1.3-0.4c0.4-0.2,0.7-0.6,1-1
		c0.3-0.4,0.5-0.9,0.6-1.5c0.1-0.6,0.2-1.2,0.2-1.9s-0.1-1.3-0.2-1.9s-0.3-1.1-0.6-1.5c-0.3-0.4-0.6-0.8-1-1
		c-0.4-0.2-0.8-0.4-1.3-0.4c-0.6,0-1.1,0.2-1.7,0.6s-0.9,0.9-1.2,1.4v5.7c0.3,0.6,0.7,1,1.2,1.4C22.2,119.7,22.8,119.9,23.4,119.9z"
		/>
	<path class="st1" d="M39.7,121.3v-1.4c-1.1,1.2-2.4,1.7-4.2,1.7c-0.5,0-1.1-0.1-1.6-0.3s-1-0.4-1.4-0.8c-0.4-0.4-0.8-0.8-1-1.3
		c-0.3-0.5-0.4-1.1-0.4-1.8c0-0.7,0.1-1.3,0.4-1.8c0.3-0.5,0.6-1,1-1.3s0.9-0.6,1.4-0.8c0.5-0.2,1-0.2,1.6-0.2
		c0.9,0,1.7,0.1,2.4,0.4c0.7,0.3,1.3,0.7,1.8,1.3v-2.3c0-0.8-0.3-1.5-0.9-2c-0.6-0.5-1.4-0.7-2.3-0.7c-1.5,0-2.8,0.6-3.8,1.7
		l-0.9-1.4c1.3-1.4,3-2.1,5-2.1c0.7,0,1.3,0.1,1.9,0.2c0.6,0.2,1.1,0.4,1.5,0.7c0.4,0.3,0.8,0.8,1.1,1.3c0.3,0.5,0.4,1.2,0.4,2v8.6
		H39.7z M36.2,120.3c0.7,0,1.3-0.1,2-0.4c0.6-0.3,1.1-0.6,1.5-1.2v-2.4c-0.4-0.5-0.9-0.9-1.5-1.2c-0.6-0.3-1.3-0.4-2-0.4
		c-0.9,0-1.7,0.3-2.2,0.8c-0.6,0.5-0.9,1.2-0.9,2c0,0.8,0.3,1.5,0.9,2C34.6,120,35.3,120.3,36.2,120.3z"/>
	<path class="st1" d="M51,121.7c-1,0-1.8-0.2-2.6-0.5c-0.8-0.4-1.4-0.9-1.9-1.5c-0.5-0.6-0.9-1.4-1.2-2.3c-0.3-0.9-0.4-1.8-0.4-2.9
		c0-1.5,0.1-2.8,0.4-3.9c0.3-1.1,0.7-2,1.2-2.7c0.5-0.7,1.2-1.3,2.1-1.7s1.8-0.7,2.9-0.8c0.7-0.1,1.3-0.2,1.7-0.3
		c0.5-0.1,0.8-0.2,1.1-0.3c0.3-0.1,0.5-0.2,0.6-0.3c0.1-0.1,0.2-0.2,0.2-0.4h1.9c0,0.5-0.2,0.9-0.5,1.3s-0.7,0.6-1.2,0.8
		s-1,0.4-1.6,0.5c-0.6,0.1-1.1,0.2-1.7,0.3c-0.9,0.1-1.7,0.3-2.3,0.6c-0.6,0.3-1.1,0.6-1.5,0.9c-0.4,0.4-0.7,0.8-0.9,1.2
		c-0.2,0.5-0.4,1-0.5,1.5c0.2-0.4,0.5-0.7,0.8-1s0.7-0.6,1.1-0.8c0.4-0.2,0.8-0.4,1.3-0.6c0.5-0.1,1-0.2,1.5-0.2
		c0.9,0,1.7,0.2,2.4,0.5s1.3,0.8,1.9,1.4c0.5,0.6,0.9,1.3,1.2,2.1c0.3,0.8,0.4,1.6,0.4,2.5c0,0.9-0.1,1.8-0.4,2.6
		c-0.3,0.8-0.7,1.5-1.2,2.1c-0.5,0.6-1.2,1.1-1.9,1.4C52.9,121.5,52,121.7,51,121.7z M51,119.9c0.7,0,1.3-0.1,1.8-0.4
		s0.9-0.6,1.3-1.1c0.4-0.4,0.6-1,0.8-1.5c0.2-0.6,0.3-1.2,0.3-1.9c0-0.6-0.1-1.2-0.3-1.8c-0.2-0.6-0.5-1.1-0.8-1.5
		c-0.4-0.4-0.8-0.8-1.3-1.1s-1.1-0.4-1.8-0.4c-0.7,0-1.3,0.1-1.8,0.4s-1,0.6-1.3,1.1c-0.4,0.4-0.6,1-0.8,1.5
		c-0.2,0.6-0.3,1.2-0.3,1.8c0,0.7,0.1,1.3,0.3,1.9c0.2,0.6,0.5,1.1,0.8,1.5c0.4,0.4,0.8,0.8,1.3,1.1S50.4,119.9,51,119.9z"/>
	<path class="st1" d="M66.7,121.7c-0.9,0-1.7-0.2-2.4-0.6s-1.3-0.9-1.8-1.6v6.7h-1.9v-17.3h1.9v1.9c0.5-0.6,1-1.2,1.8-1.6
		s1.6-0.6,2.4-0.6c0.8,0,1.6,0.2,2.3,0.5c0.7,0.3,1.3,0.7,1.8,1.3c0.5,0.6,0.9,1.3,1.1,2.1c0.3,0.8,0.4,1.7,0.4,2.8
		s-0.1,1.9-0.4,2.8c-0.3,0.8-0.7,1.5-1.1,2.1c-0.5,0.6-1.1,1-1.8,1.3C68.3,121.5,67.6,121.7,66.7,121.7z M66.2,119.9
		c0.6,0,1.2-0.1,1.7-0.4c0.5-0.2,0.9-0.6,1.3-1c0.3-0.4,0.6-0.9,0.8-1.5c0.2-0.6,0.3-1.2,0.3-1.9s-0.1-1.3-0.3-1.9
		c-0.2-0.6-0.4-1.1-0.8-1.5c-0.3-0.4-0.8-0.8-1.3-1c-0.5-0.2-1.1-0.4-1.7-0.4c-0.8,0-1.5,0.2-2.2,0.6s-1.2,0.9-1.5,1.4v5.7
		c0.3,0.6,0.9,1,1.5,1.4C64.7,119.7,65.5,119.9,66.2,119.9z"/>
	<path class="st1" d="M75.4,121.3v-12.6h1.9v9.6l6.6-9.6h1.9v12.6h-1.9v-9.8l-6.6,9.8H75.4z"/>
	<path class="st1" d="M98.3,121.3l-4.5-5.6l-2.1,2.1v3.6h-1.9v-12.6h1.9v6.7l6.6-6.7h2.5l-5.6,5.7l5.6,6.9H98.3z"/>
	<path class="st1" d="M111,121.3v-1.4c-1.1,1.2-2.4,1.7-4.2,1.7c-0.5,0-1.1-0.1-1.6-0.3s-1-0.4-1.4-0.8c-0.4-0.4-0.8-0.8-1-1.3
		c-0.3-0.5-0.4-1.1-0.4-1.8c0-0.7,0.1-1.3,0.4-1.8c0.3-0.5,0.6-1,1-1.3s0.9-0.6,1.4-0.8c0.5-0.2,1-0.2,1.6-0.2
		c0.9,0,1.7,0.1,2.4,0.4c0.7,0.3,1.3,0.7,1.8,1.3v-2.3c0-0.8-0.3-1.5-0.9-2c-0.6-0.5-1.4-0.7-2.3-0.7c-1.5,0-2.8,0.6-3.8,1.7
		l-0.9-1.4c1.3-1.4,3-2.1,5-2.1c0.7,0,1.3,0.1,1.9,0.2c0.6,0.2,1.1,0.4,1.5,0.7c0.4,0.3,0.8,0.8,1.1,1.3c0.3,0.5,0.4,1.2,0.4,2v8.6
		H111z M107.5,120.3c0.7,0,1.3-0.1,2-0.4c0.6-0.3,1.1-0.6,1.5-1.2v-2.4c-0.4-0.5-0.9-0.9-1.5-1.2c-0.6-0.3-1.3-0.4-2-0.4
		c-0.9,0-1.7,0.3-2.2,0.8c-0.6,0.5-0.9,1.2-0.9,2c0,0.8,0.3,1.5,0.9,2C105.9,120,106.6,120.3,107.5,120.3z"/>
	<path class="st1" d="M131.4,121.3v-1.4c-1.1,1.2-2.4,1.7-4.2,1.7c-0.5,0-1.1-0.1-1.6-0.3s-1-0.4-1.4-0.8c-0.4-0.4-0.8-0.8-1-1.3
		c-0.3-0.5-0.4-1.1-0.4-1.8c0-0.7,0.1-1.3,0.4-1.8c0.3-0.5,0.6-1,1-1.3s0.9-0.6,1.4-0.8c0.5-0.2,1-0.2,1.6-0.2
		c0.9,0,1.7,0.1,2.4,0.4c0.7,0.3,1.3,0.7,1.8,1.3v-2.3c0-0.8-0.3-1.5-0.9-2c-0.6-0.5-1.4-0.7-2.3-0.7c-1.5,0-2.8,0.6-3.8,1.7
		l-0.9-1.4c1.3-1.4,3-2.1,5-2.1c0.7,0,1.3,0.1,1.9,0.2c0.6,0.2,1.1,0.4,1.5,0.7c0.4,0.3,0.8,0.8,1.1,1.3c0.3,0.5,0.4,1.2,0.4,2v8.6
		H131.4z M127.9,120.3c0.7,0,1.3-0.1,2-0.4c0.6-0.3,1.1-0.6,1.5-1.2v-2.4c-0.4-0.5-0.9-0.9-1.5-1.2c-0.6-0.3-1.3-0.4-2-0.4
		c-0.9,0-1.7,0.3-2.2,0.8c-0.6,0.5-0.9,1.2-0.9,2c0,0.8,0.3,1.5,0.9,2C126.3,120,127,120.3,127.9,120.3z"/>
	<path class="st1" d="M137.2,121.3v-12.6h6.9c1.1,0,2,0.3,2.6,0.9s0.9,1.4,0.9,2.3c0,0.8-0.2,1.4-0.6,1.9c-0.4,0.5-0.9,0.8-1.4,1
		c0.3,0.1,0.6,0.2,0.9,0.4c0.3,0.2,0.5,0.4,0.7,0.7c0.2,0.3,0.4,0.6,0.5,0.9c0.1,0.3,0.2,0.7,0.2,1c0,1-0.3,1.8-1,2.5
		c-0.6,0.6-1.5,0.9-2.7,0.9H137.2z M143.8,114c0.6,0,1.1-0.2,1.4-0.5s0.5-0.7,0.5-1.2c0-0.5-0.2-1-0.5-1.3s-0.8-0.5-1.4-0.5h-4.6
		v3.5H143.8z M143.9,119.6c0.6,0,1.1-0.2,1.5-0.5c0.4-0.3,0.5-0.8,0.5-1.4c0-0.5-0.2-0.9-0.5-1.3c-0.3-0.4-0.8-0.6-1.5-0.6h-4.7v3.8
		H143.9z"/>
	<path class="st1" d="M153.9,121.3v-10.8h-3.6v-1.7h9.3v1.7h-3.7v10.8H153.9z"/>
	<path class="st1" d="M167.6,121.7c-1,0-1.8-0.2-2.6-0.5c-0.8-0.3-1.4-0.8-2-1.4c-0.5-0.6-0.9-1.3-1.2-2.1c-0.3-0.8-0.4-1.7-0.4-2.6
		c0-0.9,0.1-1.8,0.4-2.6c0.3-0.8,0.7-1.5,1.2-2.1c0.5-0.6,1.2-1.1,2-1.4c0.8-0.3,1.6-0.5,2.6-0.5c1,0,1.8,0.2,2.6,0.5
		c0.8,0.3,1.4,0.8,2,1.4c0.5,0.6,0.9,1.3,1.2,2.1c0.3,0.8,0.4,1.7,0.4,2.6c0,0.9-0.1,1.8-0.4,2.6c-0.3,0.8-0.7,1.5-1.2,2.1
		s-1.2,1.1-2,1.4C169.4,121.5,168.5,121.7,167.6,121.7z M167.6,119.9c0.7,0,1.3-0.1,1.8-0.4s0.9-0.6,1.3-1.1c0.4-0.4,0.6-1,0.8-1.5
		c0.2-0.6,0.3-1.2,0.3-1.8c0-0.6-0.1-1.3-0.3-1.8c-0.2-0.6-0.5-1.1-0.8-1.5c-0.4-0.4-0.8-0.8-1.3-1.1s-1.1-0.4-1.8-0.4
		c-0.7,0-1.3,0.1-1.8,0.4s-1,0.6-1.3,1.1c-0.4,0.4-0.6,1-0.8,1.5c-0.2,0.6-0.3,1.2-0.3,1.8c0,0.6,0.1,1.3,0.3,1.8
		c0.2,0.6,0.5,1.1,0.8,1.5c0.4,0.4,0.8,0.8,1.3,1.1S166.9,119.9,167.6,119.9z"/>
	<path class="st1" d="M183.2,121.7c-0.9,0-1.7-0.2-2.4-0.6s-1.3-0.9-1.8-1.6v6.7H177v-17.3h1.9v1.9c0.5-0.6,1-1.2,1.8-1.6
		s1.6-0.6,2.4-0.6c0.8,0,1.6,0.2,2.3,0.5c0.7,0.3,1.3,0.7,1.8,1.3c0.5,0.6,0.9,1.3,1.1,2.1c0.3,0.8,0.4,1.7,0.4,2.8
		s-0.1,1.9-0.4,2.8c-0.3,0.8-0.7,1.5-1.1,2.1c-0.5,0.6-1.1,1-1.8,1.3C184.8,121.5,184,121.7,183.2,121.7z M182.7,119.9
		c0.6,0,1.2-0.1,1.7-0.4c0.5-0.2,0.9-0.6,1.3-1c0.3-0.4,0.6-0.9,0.8-1.5c0.2-0.6,0.3-1.2,0.3-1.9s-0.1-1.3-0.3-1.9
		c-0.2-0.6-0.4-1.1-0.8-1.5c-0.3-0.4-0.8-0.8-1.3-1c-0.5-0.2-1.1-0.4-1.7-0.4c-0.8,0-1.5,0.2-2.2,0.6s-1.2,0.9-1.5,1.4v5.7
		c0.3,0.6,0.9,1,1.5,1.4C181.2,119.7,181.9,119.9,182.7,119.9z"/>
	<path class="st1" d="M197.4,121.7c-0.9,0-1.8-0.2-2.6-0.5c-0.8-0.3-1.4-0.8-2-1.4c-0.5-0.6-1-1.3-1.3-2.1c-0.3-0.8-0.5-1.7-0.5-2.6
		s0.2-1.8,0.5-2.6c0.3-0.8,0.7-1.5,1.3-2.1c0.5-0.6,1.2-1.1,2-1.4c0.8-0.3,1.6-0.5,2.6-0.5c1.1,0,2.1,0.2,2.8,0.6
		c0.7,0.4,1.3,0.9,1.8,1.6l-1.3,1.2c-0.4-0.6-0.9-1-1.4-1.2c-0.5-0.3-1.1-0.4-1.8-0.4c-0.7,0-1.3,0.1-1.8,0.4c-0.5,0.2-1,0.6-1.4,1
		c-0.4,0.4-0.7,0.9-0.9,1.5s-0.3,1.2-0.3,1.9s0.1,1.3,0.3,1.9c0.2,0.6,0.5,1.1,0.9,1.5c0.4,0.4,0.8,0.8,1.4,1
		c0.5,0.2,1.1,0.4,1.8,0.4c1.3,0,2.4-0.5,3.2-1.6l1.3,1.2c-0.5,0.6-1.1,1.1-1.8,1.6C199.5,121.4,198.5,121.7,197.4,121.7z"/>
	<path class="st1" d="M213.3,121.3l-4.5-5.6l-2.1,2.1v3.6h-2v-12.6h2v6.7l6.6-6.7h2.5l-5.6,5.7l5.6,6.9H213.3z"/>
	<path class="st1" d="M218.1,121.3v-12.6h2v9.6l6.6-9.6h1.9v12.6h-2v-9.8l-6.6,9.8H218.1z"/>
	<path class="st1" d="M240.6,121.3l-3.8-5.1l-3.8,5.1h-2.2l4.8-6.4l-4.5-6.1h2.3l3.5,4.8l3.5-4.8h2.3l-4.6,6.1l4.8,6.4H240.6z"/>
	<path class="st1" d="M251.8,121.3v-12.6h2v9.6l6.6-9.6h1.9v12.6h-2v-9.8l-6.6,9.8H251.8z"/>
	<path class="st1" d="M266.1,121.3v-12.6h2v5.2h6.6v-5.2h2v12.6h-2v-5.6h-6.6v5.6H266.1z"/>
	<path class="st1" d="M282.8,121.3v-10.8h-3.6v-1.7h9.3v1.7h-3.7v10.8H282.8z"/>
	<path class="st1" d="M296.6,121.7c-0.9,0-1.8-0.2-2.6-0.5s-1.5-0.8-2-1.4c-0.6-0.6-1-1.3-1.3-2.1c-0.3-0.8-0.5-1.7-0.5-2.7
		c0-0.9,0.2-1.8,0.5-2.6c0.3-0.8,0.7-1.5,1.3-2.1c0.5-0.6,1.2-1.1,2-1.4s1.6-0.5,2.5-0.5c1,0,1.8,0.2,2.6,0.5s1.4,0.8,1.9,1.4
		c0.5,0.6,0.9,1.3,1.2,2.1c0.3,0.8,0.4,1.7,0.4,2.6v0.5h-10.2c0,0.6,0.2,1.1,0.4,1.7c0.2,0.5,0.5,1,0.9,1.4s0.9,0.7,1.4,0.9
		c0.5,0.2,1.1,0.4,1.8,0.4c0.7,0,1.4-0.1,2.1-0.4s1.3-0.7,1.8-1.2l0.9,1.3c-0.6,0.6-1.4,1.1-2.2,1.4S297.6,121.7,296.6,121.7z
		 M300.5,114.3c0-0.5-0.1-0.9-0.2-1.4c-0.2-0.5-0.4-0.9-0.8-1.4c-0.3-0.4-0.8-0.7-1.3-1c-0.5-0.3-1.1-0.4-1.8-0.4
		c-0.7,0-1.3,0.1-1.8,0.4c-0.5,0.3-0.9,0.6-1.3,1c-0.3,0.4-0.6,0.8-0.8,1.3c-0.2,0.5-0.3,1-0.3,1.5H300.5z"/>
	<path class="st1" d="M311.8,121.7c-0.9,0-1.7-0.2-2.4-0.6c-0.7-0.4-1.3-0.9-1.8-1.6v6.7h-2v-17.3h2v1.9c0.5-0.6,1-1.2,1.8-1.6
		c0.7-0.4,1.6-0.6,2.4-0.6c0.8,0,1.6,0.2,2.3,0.5c0.7,0.3,1.3,0.7,1.8,1.3c0.5,0.6,0.9,1.3,1.1,2.1c0.3,0.8,0.4,1.7,0.4,2.8
		s-0.1,1.9-0.4,2.8c-0.3,0.8-0.7,1.5-1.1,2.1s-1.1,1-1.8,1.3C313.3,121.5,312.6,121.7,311.8,121.7z M311.3,119.9
		c0.6,0,1.2-0.1,1.7-0.4c0.5-0.2,0.9-0.6,1.3-1c0.3-0.4,0.6-0.9,0.8-1.5c0.2-0.6,0.3-1.2,0.3-1.9s-0.1-1.3-0.3-1.9
		c-0.2-0.6-0.4-1.1-0.8-1.5c-0.3-0.4-0.8-0.8-1.3-1c-0.5-0.2-1.1-0.4-1.7-0.4c-0.8,0-1.5,0.2-2.2,0.6c-0.7,0.4-1.2,0.9-1.5,1.4v5.7
		c0.3,0.6,0.9,1,1.5,1.4C309.8,119.7,310.5,119.9,311.3,119.9z"/>
	<path class="st1" d="M322.4,108.8v4.8h4.7c0.6,0,1.2,0.1,1.7,0.3c0.5,0.2,0.9,0.5,1.2,0.8c0.3,0.4,0.6,0.8,0.8,1.2
		c0.2,0.5,0.2,1,0.2,1.5s-0.1,1-0.3,1.5s-0.4,0.9-0.8,1.2s-0.7,0.6-1.2,0.8c-0.5,0.2-1.1,0.3-1.7,0.3h-6.7v-12.6H322.4z
		 M322.4,115.4v4.2h4.5c0.7,0,1.2-0.2,1.6-0.6c0.4-0.4,0.5-0.9,0.5-1.5c0-0.6-0.2-1.1-0.5-1.5c-0.4-0.4-0.9-0.6-1.6-0.6H322.4z"/>
	<path class="st1" d="M339.7,121.7c-0.9,0-1.8-0.2-2.6-0.5s-1.5-0.8-2-1.4c-0.6-0.6-1-1.3-1.3-2.1c-0.3-0.8-0.5-1.7-0.5-2.7
		c0-0.9,0.2-1.8,0.5-2.6c0.3-0.8,0.7-1.5,1.3-2.1c0.5-0.6,1.2-1.1,2-1.4s1.6-0.5,2.5-0.5c1,0,1.8,0.2,2.6,0.5s1.4,0.8,1.9,1.4
		c0.5,0.6,0.9,1.3,1.2,2.1c0.3,0.8,0.4,1.7,0.4,2.6v0.5h-10.2c0,0.6,0.2,1.1,0.4,1.7c0.2,0.5,0.5,1,0.9,1.4s0.9,0.7,1.4,0.9
		c0.5,0.2,1.1,0.4,1.8,0.4c0.7,0,1.4-0.1,2.1-0.4s1.3-0.7,1.8-1.2l0.9,1.3c-0.6,0.6-1.4,1.1-2.2,1.4S340.7,121.7,339.7,121.7z
		 M343.6,114.3c0-0.5-0.1-0.9-0.2-1.4c-0.2-0.5-0.4-0.9-0.8-1.4c-0.3-0.4-0.8-0.7-1.3-1c-0.5-0.3-1.1-0.4-1.8-0.4
		c-0.7,0-1.3,0.1-1.8,0.4c-0.5,0.3-0.9,0.6-1.3,1c-0.3,0.4-0.6,0.8-0.8,1.3c-0.2,0.5-0.3,1-0.3,1.5H343.6z"/>
	<path class="st1" d="M354.8,121.7c-0.9,0-1.7-0.2-2.4-0.6c-0.7-0.4-1.3-0.9-1.8-1.6v6.7h-2v-17.3h2v1.9c0.5-0.6,1-1.2,1.8-1.6
		c0.7-0.4,1.6-0.6,2.4-0.6c0.8,0,1.6,0.2,2.3,0.5c0.7,0.3,1.3,0.7,1.8,1.3c0.5,0.6,0.9,1.3,1.1,2.1c0.3,0.8,0.4,1.7,0.4,2.8
		s-0.1,1.9-0.4,2.8c-0.3,0.8-0.7,1.5-1.1,2.1s-1.1,1-1.8,1.3C356.4,121.5,355.7,121.7,354.8,121.7z M354.3,119.9
		c0.6,0,1.2-0.1,1.7-0.4c0.5-0.2,0.9-0.6,1.3-1c0.3-0.4,0.6-0.9,0.8-1.5c0.2-0.6,0.3-1.2,0.3-1.9s-0.1-1.3-0.3-1.9
		c-0.2-0.6-0.4-1.1-0.8-1.5c-0.3-0.4-0.8-0.8-1.3-1c-0.5-0.2-1.1-0.4-1.7-0.4c-0.8,0-1.5,0.2-2.2,0.6c-0.7,0.4-1.2,0.9-1.5,1.4v5.7
		c0.3,0.6,0.9,1,1.5,1.4C352.8,119.7,353.6,119.9,354.3,119.9z"/>
	<path class="st1" d="M369,121.7c-1,0-1.8-0.2-2.6-0.5s-1.4-0.8-2-1.4s-0.9-1.3-1.2-2.1c-0.3-0.8-0.4-1.7-0.4-2.6
		c0-0.9,0.1-1.8,0.4-2.6c0.3-0.8,0.7-1.5,1.2-2.1c0.5-0.6,1.2-1.1,2-1.4s1.6-0.5,2.6-0.5s1.8,0.2,2.6,0.5c0.8,0.3,1.4,0.8,2,1.4
		c0.5,0.6,0.9,1.3,1.2,2.1c0.3,0.8,0.4,1.7,0.4,2.6c0,0.9-0.1,1.8-0.4,2.6s-0.7,1.5-1.2,2.1c-0.5,0.6-1.2,1.1-2,1.4
		C370.8,121.5,370,121.7,369,121.7z M369,119.9c0.7,0,1.3-0.1,1.8-0.4s0.9-0.6,1.3-1.1c0.4-0.4,0.6-1,0.8-1.5
		c0.2-0.6,0.3-1.2,0.3-1.8c0-0.6-0.1-1.3-0.3-1.8c-0.2-0.6-0.5-1.1-0.8-1.5c-0.4-0.4-0.8-0.8-1.3-1.1s-1.1-0.4-1.8-0.4
		c-0.7,0-1.3,0.1-1.8,0.4c-0.5,0.3-1,0.6-1.3,1.1c-0.4,0.4-0.6,1-0.8,1.5c-0.2,0.6-0.3,1.2-0.3,1.8c0,0.6,0.1,1.3,0.3,1.8
		c0.2,0.6,0.5,1.1,0.8,1.5c0.4,0.4,0.8,0.8,1.3,1.1C367.7,119.8,368.3,119.9,369,119.9z"/>
	<path class="st1" d="M378.4,121.3v-12.6h6.9c1.1,0,2,0.3,2.6,0.9s0.9,1.4,0.9,2.3c0,0.8-0.2,1.4-0.6,1.9s-0.9,0.8-1.4,1
		c0.3,0.1,0.6,0.2,0.9,0.4c0.3,0.2,0.5,0.4,0.7,0.7c0.2,0.3,0.4,0.6,0.5,0.9c0.1,0.3,0.2,0.7,0.2,1c0,1-0.3,1.8-1,2.5
		c-0.6,0.6-1.5,0.9-2.7,0.9H378.4z M385,114c0.6,0,1.1-0.2,1.4-0.5c0.3-0.3,0.5-0.7,0.5-1.2c0-0.5-0.2-1-0.5-1.3
		c-0.3-0.3-0.8-0.5-1.4-0.5h-4.6v3.5H385z M385.1,119.6c0.6,0,1.1-0.2,1.5-0.5c0.4-0.3,0.5-0.8,0.5-1.4c0-0.5-0.2-0.9-0.5-1.3
		c-0.3-0.4-0.8-0.6-1.5-0.6h-4.7v3.8H385.1z"/>
</g>
</svg>
